<!-- <svg width="1076" height="727" viewBox="0 0 1076 727">
          <polygon id="blancodelamama" points="546,450 487,597 371,310 320,435 189, 435 364, 1" fill="#ffffff"
            stroke="aliceblue" />
          <polygon id="violeta" points="771,435 646,435 536,161 597,4" fill="#b274eb" stroke="#b274eb" />
          <path
            d="M12.35,121.46c-8.01-9.72-11.92-19.29-12.31-28.71C-0.78,73.01,10.92,58.28,28.3,47.67 c18.28-11.16,37.08-13.93,55.36-22.25C92.79,21.27,103.68,14.47,121.8,0c5.92,15.69-12.92,40.9-43.52,54.23 c9.48,0.37,19.69-2.54,30.85-9.74c-0.76,19.94-16.46,32.21-51.3,36.95c7.33,2.45,16.09,2.58,27.27-0.58 C74.33,116.81,29.9,91.06,12.35,121.46L12.35,121.46z"
            transform="scale(2) translate(155 2) rotate(-180 5 100)" fill="#ffffff" />
</svg> -->

<svg width="1076" height="727" viewBox="0 0 1076 727">
          <polygon id="blancodelamama" points="546,450 487,597 371,310 320,435 189, 435 364, 1" fill="#000000"
            stroke="aliceblue" />
          <polygon id="violeta" points="771,435 646,435 536,161 597,4" fill="#b274eb" stroke="#b274eb" />
          <path
            d="M12.35,121.46c-8.01-9.72-11.92-19.29-12.31-28.71C-0.78,73.01,10.92,58.28,28.3,47.67 c18.28-11.16,37.08-13.93,55.36-22.25C92.79,21.27,103.68,14.47,121.8,0c5.92,15.69-12.92,40.9-43.52,54.23 c9.48,0.37,19.69-2.54,30.85-9.74c-0.76,19.94-16.46,32.21-51.3,36.95c7.33,2.45,16.09,2.58,27.27-0.58 C74.33,116.81,29.9,91.06,12.35,121.46L12.35,121.46z"
            transform="scale(2) translate(155 2) rotate(-180 5 100)" fill="#000000" />
</svg>